<svg preserveAspectRatio="none" width="100%" height="100%" overflow="visible" style="display: block;" viewBox="0 0 27 24" fill="none" xmlns="http://www.w3.org/2000/svg">
<g id="Group">
<path id="Vector" d="M18.3477 11.1466H17.3866C17.3519 11.1043 17.3237 11.0725 17.2954 11.0365V9.7009H17.3844C17.4929 9.7009 17.6187 9.70513 17.7619 9.70513H20.2375C20.0683 10.6682 19.4456 11.1466 18.3477 11.1466ZM18.9053 17.628C18.5842 18.7223 17.942 19.5055 17.0438 19.8908C16.1954 20.2527 15.1518 20.2421 14.1776 19.8759L14.1256 19.8484C15.4295 19.3743 17.2976 17.7275 17.2976 16.6818C17.2976 16.6818 17.2954 16.6818 17.2933 16.6818V16.6776V13.0178L17.5363 12.8506C18.4193 14.1989 19.3501 16.0976 18.9053 17.6216M16.0848 21.3767C15.7593 21.7873 14.1798 22.7864 13.4898 22.7864C12.7999 22.7864 11.3484 21.8678 10.9405 21.4296C10.9296 21.4169 10.9188 21.4063 10.9101 21.3936V21.3174C11.0511 21.328 11.1922 21.3386 11.3354 21.3386C12.0817 21.3365 12.8216 21.1819 13.5072 20.8898C14.3187 21.2391 15.2039 21.3873 16.0869 21.3217V21.3767H16.0848ZM9.9511 19.8675C9.05286 19.4801 8.40846 18.699 8.08952 17.6047C7.64474 16.087 8.56902 14.1968 9.44774 12.8485L9.69074 13.0157V16.6755L9.69942 16.6797C9.69942 17.7211 11.5545 19.3595 12.8585 19.84C11.8713 20.221 10.8125 20.2358 9.95327 19.8696M6.753 9.70513H9.2286C9.3718 9.70513 9.49547 9.70302 9.60612 9.7009H9.69725V11.0387C9.66904 11.0725 9.64084 11.1043 9.60395 11.1466H8.64279C7.54276 11.1466 6.92441 10.6682 6.753 9.70513ZM22.5699 8.71028C22.5135 8.64889 22.4441 8.60021 22.366 8.56846C22.2879 8.53459 22.2054 8.51766 22.1208 8.51766H17.7706L17.4148 8.51342C16.9548 8.50707 16.6228 8.50072 16.3495 8.7632C16.0761 9.02567 16.0848 9.37493 16.0848 9.58448V17.175C14.4098 17.7211 12.6892 17.7338 10.9166 17.1602V9.58025C10.9166 9.36857 10.9166 9.01508 10.6497 8.75896C10.3829 8.50284 10.0444 8.50284 9.58443 8.50919L4.87189 8.51342C4.79162 8.51342 4.71134 8.52824 4.63757 8.55999C4.5638 8.58962 4.49654 8.63408 4.44013 8.69123C4.38372 8.74626 4.33815 8.814 4.30778 8.88596C4.2774 8.95793 4.26222 9.03625 4.26439 9.11457C4.26872 9.27332 4.33815 9.42361 4.45749 9.53368C4.57465 9.64375 4.73304 9.70302 4.89576 9.7009H5.52497C5.72892 11.263 6.74215 12.2198 8.34771 12.3235C7.82699 13.2845 6.78989 15.3652 6.76819 16.7051C6.72914 18.5382 7.65992 20.1363 9.67989 21.0338V21.4931C9.67989 21.7259 9.83177 21.9905 10.0791 22.2551C10.8645 23.1124 12.661 23.9972 13.5094 23.9972C14.6159 23.9972 17.3237 22.5007 17.3237 21.5122V21.0528C19.3436 20.1553 20.2744 18.5572 20.2354 16.7242C20.2137 15.3758 19.1657 13.2803 18.6472 12.3256C20.2505 12.2219 21.2638 11.2673 21.4699 9.70302H22.1013C22.2553 9.70302 22.405 9.6501 22.5222 9.55061C22.6372 9.45113 22.711 9.31142 22.7283 9.16114C22.7348 9.07859 22.7261 8.99603 22.6979 8.91772C22.6719 8.8394 22.6263 8.76743 22.5699 8.70604" fill="var(--fill-0, #16A34A)"/>
<path id="Vector_2" d="M21.5523 2.25853C20.6736 1.60659 18.0526 0 13.5007 0C8.9487 0 6.32556 1.60659 5.44685 2.25853C2.53731 0.965221 1.18344 1.60447 0.558571 2.38977C-0.606543 3.85453 0.187557 6.69093 1.68463 8.57692C1.96669 8.90078 2.6241 8.941 2.94304 8.65101C2.97776 8.55364 2.98644 8.4478 2.96474 8.3462C2.94521 8.2446 2.89748 8.14935 2.83022 8.07103C1.41776 6.45386 0.779878 4.04716 1.51757 3.12427C2.03829 2.46809 3.40518 2.60356 5.26676 3.49258C5.37742 3.54549 5.50326 3.56454 5.62693 3.54761C5.7506 3.52856 5.86342 3.47564 5.95455 3.39097C5.97842 3.36769 8.38675 1.18959 13.5007 1.18959C18.6146 1.18959 21.0229 3.36981 21.0468 3.39097C21.1358 3.47353 21.2507 3.52856 21.3744 3.54761C21.4981 3.56666 21.6218 3.54761 21.7346 3.49258C23.5962 2.60356 24.9631 2.46809 25.4838 3.12427C26.2193 4.04927 25.5836 6.45386 24.1711 8.07314C24.1017 8.15146 24.0561 8.24671 24.0366 8.34832C24.0171 8.44992 24.0236 8.55575 24.0583 8.65312C24.4619 8.97275 24.8936 9.02355 25.3167 8.57904C26.8116 6.69305 27.6079 3.85665 26.4449 2.39189C25.8179 1.60659 24.4662 0.967338 21.5545 2.26065" fill="var(--fill-0, #16A34A)"/>
<path id="Vector_3" d="M10.1334 6.22102C10.461 6.22102 10.7257 5.96278 10.7257 5.64527C10.7257 5.32777 10.461 5.06953 10.1334 5.06953C9.80574 5.06953 9.54104 5.32777 9.54104 5.64527C9.54104 5.96278 9.80574 6.22102 10.1334 6.22102Z" fill="var(--fill-0, #16A34A)"/>
<path id="Vector_4" d="M17.3519 5.64527C17.3519 5.32777 17.0872 5.06953 16.7596 5.06953C16.4319 5.06953 16.1672 5.32777 16.1672 5.64527C16.1672 5.96278 16.4319 6.22102 16.7596 6.22102C17.0872 6.22102 17.3519 5.96278 17.3519 5.64527Z" fill="var(--fill-0, #16A34A)"/>
<path id="Vector_5" d="M13.4942 4.34349C13.8218 4.34349 14.0865 4.08525 14.0865 3.76775C14.0865 3.45024 13.8218 3.192 13.4942 3.192C13.1666 3.192 12.9019 3.45024 12.9019 3.76775C12.9019 4.08525 13.1666 4.34349 13.4942 4.34349Z" fill="var(--fill-0, #16A34A)"/>
<path id="Vector_6" d="M13.4942 7.50798C13.8218 7.50798 14.0865 7.24974 14.0865 6.93224C14.0865 6.61473 13.8218 6.35649 13.4942 6.35649C13.1666 6.35649 12.9019 6.61473 12.9019 6.93224C12.9019 7.24974 13.1666 7.50798 13.4942 7.50798Z" fill="var(--fill-0, #16A34A)"/>
</g>
</svg>
